<svg width="460" height="449" viewBox="0 0 460 449" fill="none" xmlns="http://www.w3.org/2000/svg">
<path d="M271 285V278H301V285H271ZM275 266.6C272 263.667 270.5 259.967 270.5 255.5C270.5 251.033 272 247.333 275 244.4C278.067 241.467 281.733 240 286 240C290.267 240 293.9 241.467 296.9 244.4C299.967 247.333 301.5 251.033 301.5 255.5C301.5 259.967 299.967 263.667 296.9 266.6C293.9 269.533 290.267 271 286 271C281.733 271 278.067 269.533 275 266.6ZM280 262.1C281.667 263.7 283.667 264.5 286 264.5C288.333 264.5 290.333 263.7 292 262.1C293.667 260.433 294.5 258.233 294.5 255.5C294.5 252.767 293.667 250.6 292 249C290.333 247.333 288.333 246.5 286 246.5C283.667 246.5 281.667 247.333 280 249C278.333 250.6 277.5 252.767 277.5 255.5C277.5 258.233 278.333 260.433 280 262.1ZM208 285V215H222L252 275.5H254V215H262V285H248L218 224.5H216V285H208ZM320.543 285L337.043 259H336.543C335.943 259.267 335.31 259.433 334.643 259.5C333.176 259.833 331.643 260 330.043 260C323.71 260 318.376 257.867 314.043 253.6C309.71 249.333 307.543 243.967 307.543 237.5C307.543 230.967 309.843 225.433 314.443 220.9C319.11 216.3 324.81 214 331.543 214C338.276 214 343.943 216.3 348.543 220.9C353.21 225.433 355.543 230.967 355.543 237.5C355.543 242.367 354.21 246.867 351.543 251L329.543 285H320.543ZM320.143 248.9C323.21 251.967 327.01 253.5 331.543 253.5C336.076 253.5 339.876 251.967 342.943 248.9C346.01 245.767 347.543 241.967 347.543 237.5C347.543 233.033 346.01 229.267 342.943 226.2C339.876 223.067 336.076 221.5 331.543 221.5C327.01 221.5 323.21 223.067 320.143 226.2C317.076 229.267 315.543 233.033 315.543 237.5C315.543 241.967 317.076 245.767 320.143 248.9Z" fill="#12131A"/>
<path d="M206.383 327V317.9H210.283C210.967 317.9 211.548 318.147 212.025 318.641C212.51 319.126 212.753 319.724 212.753 320.435C212.753 321.007 212.588 321.501 212.259 321.917C212.129 322.082 211.968 322.238 211.778 322.385V322.45C211.994 322.571 212.176 322.719 212.324 322.892C212.696 323.317 212.883 323.841 212.883 324.465C212.883 325.176 212.64 325.778 212.155 326.272C211.678 326.757 211.097 327 210.413 327H206.383ZM207.423 321.995H210.283C210.673 321.995 211.006 321.848 211.284 321.553C211.57 321.25 211.713 320.877 211.713 320.435C211.713 319.993 211.57 319.625 211.284 319.33C211.006 319.027 210.673 318.875 210.283 318.875H207.423V321.995ZM207.423 326.025H210.413C210.803 326.025 211.136 325.878 211.414 325.583C211.7 325.28 211.843 324.907 211.843 324.465C211.843 324.023 211.7 323.655 211.414 323.36C211.136 323.057 210.803 322.905 210.413 322.905H207.423V326.025ZM220.294 327V317.9H224.259C224.979 317.9 225.59 318.169 226.092 318.706C226.604 319.235 226.859 319.898 226.859 320.695C226.859 321.492 226.604 322.16 226.092 322.697C225.59 323.226 224.979 323.49 224.259 323.49H221.334V327H220.294ZM221.334 322.515H224.259C224.693 322.515 225.061 322.346 225.364 322.008C225.668 321.67 225.819 321.232 225.819 320.695C225.819 320.158 225.668 319.72 225.364 319.382C225.061 319.044 224.693 318.875 224.259 318.875H221.334V322.515ZM229.846 327V317.9H235.696V318.875H230.886V321.93H235.436V322.905H230.886V326.025H235.696V327H229.846ZM238.751 327V317.9H239.791V325.765H240.051L244.146 317.9H245.901V327H244.861V319.135H244.601L240.506 327H238.751ZM240.506 315.235H241.351C241.385 315.521 241.489 315.746 241.663 315.911C241.836 316.067 242.057 316.145 242.326 316.145C242.594 316.145 242.815 316.067 242.989 315.911C243.162 315.746 243.266 315.521 243.301 315.235H244.146C244.111 315.72 243.925 316.115 243.587 316.418C243.249 316.713 242.828 316.86 242.326 316.86C241.823 316.86 241.403 316.713 241.065 316.418C240.727 316.115 240.54 315.72 240.506 315.235ZM251.555 327V318.875H248.565V317.9H255.585V318.875H252.595V327H251.555ZM258.248 327V317.9H259.288V325.765H259.548L263.643 317.9H265.398V327H264.358V319.135H264.098L260.003 327H258.248ZM268.778 327V317.9H269.818V321.93H274.888V317.9H275.928V327H274.888V322.905H269.818V327H268.778ZM279.307 327V317.9H285.027V318.875H280.347V327H279.307ZM287.628 327V317.9H293.478V318.875H288.668V321.93H293.218V322.905H288.668V326.025H293.478V327H287.628ZM300.828 327V317.9H304.793C305.513 317.9 306.124 318.169 306.626 318.706C307.138 319.235 307.393 319.898 307.393 320.695C307.393 321.492 307.138 322.16 306.626 322.697C306.124 323.226 305.513 323.49 304.793 323.49H301.868V327H300.828ZM301.868 322.515H304.793C305.227 322.515 305.595 322.346 305.898 322.008C306.202 321.67 306.353 321.232 306.353 320.695C306.353 320.158 306.202 319.72 305.898 319.382C305.595 319.044 305.227 318.875 304.793 318.875H301.868V322.515ZM310.64 327V326.025H311.875C312.074 326.025 312.226 325.995 312.33 325.934C312.434 325.865 312.521 325.743 312.59 325.57L312.85 324.985L309.47 317.9H310.575L313.24 323.555H313.5L316.035 317.9H317.14L313.435 326.09C313.149 326.697 312.651 327 311.94 327H310.64ZM319.615 327V317.9H320.655V321.93H325.725V317.9H326.765V327H325.725V322.905H320.655V327H319.615ZM330.144 327V317.9H335.994V318.875H331.184V321.93H335.734V322.905H331.184V326.025H335.994V327H330.144ZM341.324 327V318.875H338.334V317.9H345.354V318.875H342.364V327H341.324ZM346.202 327L349.647 317.9H351.207L354.652 327H353.547L352.702 324.66H348.152L347.307 327H346.202ZM348.542 323.685H352.312L350.557 319.005H350.297L348.542 323.685ZM217.692 344V334.9H224.842V344H223.802V335.875H218.732V344H217.692ZM235.28 342.817C234.439 343.692 233.408 344.13 232.186 344.13C230.964 344.13 229.933 343.692 229.092 342.817C228.251 341.942 227.831 340.819 227.831 339.45C227.831 338.081 228.251 336.958 229.092 336.083C229.933 335.208 230.964 334.77 232.186 334.77C233.408 334.77 234.439 335.208 235.28 336.083C236.121 336.958 236.541 338.081 236.541 339.45C236.541 340.819 236.121 341.942 235.28 342.817ZM229.833 342.128C230.474 342.813 231.259 343.155 232.186 343.155C233.113 343.155 233.898 342.813 234.539 342.128C235.18 341.435 235.501 340.542 235.501 339.45C235.501 338.358 235.18 337.47 234.539 336.785C233.898 336.092 233.113 335.745 232.186 335.745C231.259 335.745 230.474 336.092 229.833 336.785C229.192 337.47 228.871 338.358 228.871 339.45C228.871 340.542 229.192 341.435 229.833 342.128ZM243.821 344V334.9H249.671V335.875H244.861V338.93H249.411V339.905H244.861V343.025H249.671V344H243.821ZM252.271 340.75V339.84H256.431V340.75H252.271ZM266.248 341.01H267.353C267.093 341.972 266.599 342.735 265.871 343.298C265.151 343.853 264.302 344.13 263.323 344.13C262.101 344.13 261.069 343.692 260.229 342.817C259.388 341.942 258.968 340.819 258.968 339.45C258.968 338.081 259.388 336.958 260.229 336.083C261.069 335.208 262.101 334.77 263.323 334.77C264.293 334.77 265.143 335.047 265.871 335.602C266.599 336.148 267.093 336.889 267.353 337.825H266.248C266.022 337.175 265.65 336.668 265.13 336.304C264.61 335.931 264.007 335.745 263.323 335.745C262.395 335.745 261.611 336.092 260.97 336.785C260.328 337.47 260.008 338.358 260.008 339.45C260.008 340.542 260.328 341.435 260.97 342.128C261.611 342.813 262.395 343.155 263.323 343.155C264.007 343.155 264.61 342.969 265.13 342.596C265.65 342.215 266.022 341.686 266.248 341.01ZM277.213 342.817C276.372 343.692 275.341 344.13 274.119 344.13C272.897 344.13 271.865 343.692 271.025 342.817C270.184 341.942 269.764 340.819 269.764 339.45C269.764 338.081 270.184 336.958 271.025 336.083C271.865 335.208 272.897 334.77 274.119 334.77C275.341 334.77 276.372 335.208 277.213 336.083C278.053 336.958 278.474 338.081 278.474 339.45C278.474 340.819 278.053 341.942 277.213 342.817ZM271.766 342.128C272.407 342.813 273.191 343.155 274.119 343.155C275.046 343.155 275.83 342.813 276.472 342.128C277.113 341.435 277.434 340.542 277.434 339.45C277.434 338.358 277.113 337.47 276.472 336.785C275.83 336.092 275.046 335.745 274.119 335.745C273.191 335.745 272.407 336.092 271.766 336.785C271.124 337.47 270.804 338.358 270.804 339.45C270.804 340.542 271.124 341.435 271.766 342.128ZM281.458 344V334.9H283.343L286.138 342.83H286.398L289.193 334.9H291.078V344H290.038V336.265H289.778L287.048 344H285.488L282.758 336.265H282.498V344H281.458ZM294.463 344V334.9H296.348L299.143 342.83H299.403L302.198 334.9H304.083V344H303.043V336.265H302.783L300.053 344H298.493L295.763 336.265H295.503V344H294.463ZM307.468 344V334.9H313.318V335.875H308.508V338.93H313.058V339.905H308.508V343.025H313.318V344H307.468ZM316.372 344V334.9H320.337C321.057 334.9 321.668 335.169 322.17 335.706C322.682 336.235 322.937 336.898 322.937 337.695C322.937 338.492 322.682 339.16 322.17 339.697C321.668 340.226 321.057 340.49 320.337 340.49H319.492L323.132 344H321.832L318.192 340.49H317.412V344H316.372ZM317.412 339.515H320.337C320.771 339.515 321.139 339.346 321.442 339.008C321.746 338.67 321.897 338.232 321.897 337.695C321.897 337.158 321.746 336.72 321.442 336.382C321.139 336.044 320.771 335.875 320.337 335.875H317.412V339.515ZM332.878 341.01H333.983C333.723 341.972 333.229 342.735 332.501 343.298C331.781 343.853 330.932 344.13 329.953 344.13C328.731 344.13 327.699 343.692 326.859 342.817C326.018 341.942 325.598 340.819 325.598 339.45C325.598 338.081 326.018 336.958 326.859 336.083C327.699 335.208 328.731 334.77 329.953 334.77C330.923 334.77 331.773 335.047 332.501 335.602C333.229 336.148 333.723 336.889 333.983 337.825H332.878C332.652 337.175 332.28 336.668 331.76 336.304C331.24 335.931 330.637 335.745 329.953 335.745C329.025 335.745 328.241 336.092 327.6 336.785C326.958 337.47 326.638 338.358 326.638 339.45C326.638 340.542 326.958 341.435 327.6 342.128C328.241 342.813 329.025 343.155 329.953 343.155C330.637 343.155 331.24 342.969 331.76 342.596C332.28 342.215 332.652 341.686 332.878 341.01ZM336.784 344V334.9H342.634V335.875H337.824V338.93H342.374V339.905H337.824V343.025H342.634V344H336.784ZM263.353 361V360.155L267.058 356.19C267.335 355.887 267.535 355.618 267.656 355.384C267.777 355.141 267.838 354.847 267.838 354.5C267.838 353.98 267.673 353.56 267.344 353.239C267.023 352.91 266.603 352.745 266.083 352.745C265.589 352.745 265.173 352.927 264.835 353.291C264.497 353.655 264.328 354.123 264.328 354.695H263.288C263.288 353.846 263.548 353.148 264.068 352.602C264.597 352.047 265.268 351.77 266.083 351.77C266.898 351.77 267.565 352.026 268.085 352.537C268.614 353.04 268.878 353.694 268.878 354.5C268.878 355.003 268.787 355.432 268.605 355.787C268.423 356.134 268.146 356.506 267.773 356.905L264.848 359.96V360.025H269.073V361H263.353ZM272.624 359.895C271.948 359.072 271.61 357.923 271.61 356.45C271.61 354.977 271.948 353.828 272.624 353.005C273.3 352.182 274.132 351.77 275.12 351.77C276.108 351.77 276.94 352.182 277.616 353.005C278.292 353.828 278.63 354.977 278.63 356.45C278.63 357.923 278.292 359.072 277.616 359.895C276.94 360.718 276.108 361.13 275.12 361.13C274.132 361.13 273.3 360.718 272.624 359.895ZM276.875 353.72C276.398 353.07 275.813 352.745 275.12 352.745C274.427 352.745 273.842 353.07 273.365 353.72C272.888 354.37 272.65 355.28 272.65 356.45C272.65 357.62 272.888 358.53 273.365 359.18C273.842 359.83 274.427 360.155 275.12 360.155C275.813 360.155 276.398 359.83 276.875 359.18C277.352 358.53 277.59 357.62 277.59 356.45C277.59 355.28 277.352 354.37 276.875 353.72ZM281.365 361V360.155L285.07 356.19C285.347 355.887 285.547 355.618 285.668 355.384C285.789 355.141 285.85 354.847 285.85 354.5C285.85 353.98 285.685 353.56 285.356 353.239C285.035 352.91 284.615 352.745 284.095 352.745C283.601 352.745 283.185 352.927 282.847 353.291C282.509 353.655 282.34 354.123 282.34 354.695H281.3C281.3 353.846 281.56 353.148 282.08 352.602C282.609 352.047 283.28 351.77 284.095 351.77C284.91 351.77 285.577 352.026 286.097 352.537C286.626 353.04 286.89 353.694 286.89 354.5C286.89 355.003 286.799 355.432 286.617 355.787C286.435 356.134 286.158 356.506 285.785 356.905L282.86 359.96V360.025H287.085V361H281.365ZM290.636 359.895C289.96 359.072 289.622 357.923 289.622 356.45C289.622 354.977 289.96 353.828 290.636 353.005C291.312 352.182 292.144 351.77 293.132 351.77C294.12 351.77 294.952 352.182 295.628 353.005C296.304 353.828 296.642 354.977 296.642 356.45C296.642 357.923 296.304 359.072 295.628 359.895C294.952 360.718 294.12 361.13 293.132 361.13C292.144 361.13 291.312 360.718 290.636 359.895ZM294.887 353.72C294.41 353.07 293.825 352.745 293.132 352.745C292.439 352.745 291.854 353.07 291.377 353.72C290.9 354.37 290.662 355.28 290.662 356.45C290.662 357.62 290.9 358.53 291.377 359.18C291.854 359.83 292.439 360.155 293.132 360.155C293.825 360.155 294.41 359.83 294.887 359.18C295.364 358.53 295.602 357.62 295.602 356.45C295.602 355.28 295.364 354.37 294.887 353.72Z" fill="#12131A"/>
<path d="M2.93344 324.954L333.014 2.83789L457.843 446.869L2.93344 324.954Z" stroke="#8A8C99" stroke-width="3"/>
</svg>
